<svg xmlns="http://www.w3.org/2000/svg" data-name="Layer 1" viewBox="0 0 100 100" x="0px" y="0px"><path d="M19.5,62.058l8.75-9.971,1.125-1.272L37,42.116H28.75L28.8,40a20.843,20.843,0,0,1,.275-3.989l.575-3.963a36.1,36.1,0,0,1,1.05-3.814l.55-1.919c.25-.624.55-1.2.825-1.8A28.469,28.469,0,0,1,33.85,20.9,35.317,35.317,0,0,1,45.375,8.862,45.3,45.3,0,0,1,62,2.231,47.968,47.968,0,0,0,43.25,4.35,43.321,43.321,0,0,0,26.075,14.62a37.059,37.059,0,0,0-3.5,3.864c-.55.648-1.15,1.321-1.675,2.019L19.5,22.7c-.9,1.5-1.975,2.966-2.725,4.512L14.625,32a28.988,28.988,0,0,0-1.775,4.911l-1.5,5.01c-.025.075-.025.125-.05.2H2Z"/></svg>