<svg xmlns="http://www.w3.org/2000/svg" data-name="Layer 1" viewBox="0 0 512 640" x="0px" y="0px"><title>Untitled-2</title><path d="M369.52,472a43.39,43.39,0,0,1-15.65-3.09c-9.25-3.63-18.93-9.32-28.79-17-11.83-9.21-23.65-18.75-35.09-28s-23-18.6-34.68-27.66a17,17,0,0,0-9.33-3.17c-15.06-.38-30.44-0.34-45.31-0.3-7.49,0-15.23,0-22.86,0-43.75-.25-83.65-14.62-115.4-41.55S10,287.35,2.56,244.24c-7.85-45.46,2.49-91.67,29.12-130.1S98,49.94,143.23,42c4.62-.85,16.2-1.54,25.12-2h0.48c40.52,0.08,76.83.1,94.87,0.1,28.76,0,58.5,0,87.74-.1h0.47c2.37,0.11,4.62.32,6.62,0.51,39.08,3.64,76.21,21.94,104.55,51.52,28.08,29.31,45.24,67.23,48.31,106.77,2.89,37.59-4.53,73.49-21.46,103.8s-43.67,55.49-77.21,72.58c-3.28,1.66-3.36,2-3.22,5.37,0.49,13.56.39,27.22-.29,40.63a88,88,0,0,1-4.43,23c-3.95,11.65-11,20.12-20.45,24.54A34.68,34.68,0,0,1,369.52,472ZM215,373.55c10.45,0,21,.06,31.53.33h0.11a36.16,36.16,0,0,1,20.16,7L267,381c11.81,9.19,23.63,18.74,35.07,28s23.13,18.67,34.8,27.76c8.39,6.49,16.46,11.28,24,14.22,4,1.54,9.92,2.87,15.32.34,4.57-2.14,8.15-6.72,10.36-13.24A68.58,68.58,0,0,0,390,420.21c0.65-12.81.75-25.9,0.28-38.86-0.45-11,3.79-18.22,13.73-23.27,61.35-31.27,93.51-88.77,88.21-157.75-5.71-73.49-63.95-133.95-135.46-140.61h0c-1.79-.17-3.63-0.35-5.46-0.44-29.19.1-58.86,0.1-87.56,0.1-18,0-54.23,0-94.67-.1-13.37.65-20.37,1.3-22.32,1.66l-0.11,0C64.45,75.35,7.17,157.79,21.53,241,35.11,319.84,98,373.13,177.91,373.59c7.55,0,15.26,0,22.71,0Z"/></svg>