<svg id="Group_11" data-name="Group 11" xmlns="http://www.w3.org/2000/svg" width="415.998" height="354.533" viewBox="0 0 415.998 354.533">
  <g id="Group_10" data-name="Group 10" transform="translate(0 0)">
    <path id="Path_48" data-name="Path 48" d="M415.208,291.261A36.527,36.527,0,0,0,390.9,256.882V131.1L416,121.069,207.729,37.825,0,121.069l98.326,39.4v57.85c0,17.833,12.5,33.906,35.2,45.257,20.024,10.012,46.376,15.526,74.2,15.526s54.181-5.514,74.2-15.526c22.7-11.351,35.2-27.423,35.2-45.257V160.581l49.437-19.76V256.883a36.461,36.461,0,0,0-3.526,67.3l-20.163,60.488,23.066,7.689,12.781-38.341,12.781,38.341,23.066-7.689-20.163-60.488A36.516,36.516,0,0,0,415.208,291.261Zm-122.377-72.94c0,17.215-36.392,36.47-85.1,36.47s-85.1-19.254-85.1-36.47V170.214l85.09,34.1,85.1-34.016v48.024Zm-85.09-40.2L65.361,121.069l142.38-57.057,142.748,57.057Zm171,125.292a12.157,12.157,0,1,1,12.157-12.157A12.17,12.17,0,0,1,378.738,303.418Z" transform="translate(0 -37.825)" fill="#005fb9"/>
  </g>
</svg>
