<svg xmlns="http://www.w3.org/2000/svg" width="415.996" height="355.433" viewBox="0 0 415.996 355.433">
  <g id="Group_16" data-name="Group 16" transform="translate(0 0)">
    <g id="Group_13" data-name="Group 13" transform="translate(0 0)">
      <g id="Group_12" data-name="Group 12">
        <path id="Path_49" data-name="Path 49" d="M416,291.348a36.5,36.5,0,0,0-24.375-34.317V130.774L416,120.724,208,37.27,0,120.724,208,204.18l159.249-63.618V257.031a36.344,36.344,0,0,0-3.493,67.208L343.5,384.991l23.113,7.712,12.818-38.454L392.252,392.7l23.113-7.712-20.251-60.753A36.508,36.508,0,0,0,416,291.348Z" transform="translate(0 -37.27)" fill="#005fb9"/>
      </g>
    </g>
    <g id="Group_15" data-name="Group 15" transform="translate(98.312 149.133)">
      <g id="Group_14" data-name="Group 14">
        <path id="Path_50" data-name="Path 50" d="M230.687,264.864,121,220.82v31.82c0,34.741,47.155,60.937,109.687,60.937s109.687-26.2,109.687-60.937V220.82Z" transform="translate(-121 -220.82)" fill="#005fb9"/>
      </g>
    </g>
  </g>
</svg>
