<svg xmlns="http://www.w3.org/2000/svg" width="295.465" height="295.494" viewBox="0 0 295.465 295.494">
  <path id="Path_47" data-name="Path 47" d="M288.03,128.525a.217.217,0,0,1-.023-.023L167.469,7.969a27.2,27.2,0,0,0-38.472,0L8.521,128.442c-.041.041-.083.083-.122.124a27.191,27.191,0,0,0,18.1,46.347c.28.027.559.041.841.041h4.8v88.7a31.875,31.875,0,0,0,31.84,31.837h47.158a8.658,8.658,0,0,0,8.657-8.657V217.292a14.543,14.543,0,0,1,14.528-14.525h27.815a14.541,14.541,0,0,1,14.525,14.525v69.545a8.658,8.658,0,0,0,8.657,8.657h47.158a31.874,31.874,0,0,0,31.84-31.837v-88.7h4.455a27.208,27.208,0,0,0,19.253-46.428ZM275.77,154.74a9.828,9.828,0,0,1-6.993,2.9H255.665a8.656,8.656,0,0,0-8.657,8.657v97.36a14.54,14.54,0,0,1-14.525,14.523h-38.5V217.292a31.875,31.875,0,0,0-31.84-31.84H134.326a31.877,31.877,0,0,0-31.842,31.84V278.18h-38.5a14.542,14.542,0,0,1-14.525-14.523V166.3a8.656,8.656,0,0,0-8.657-8.657H27.914c-.135-.009-.268-.016-.406-.018a9.878,9.878,0,0,1-6.811-16.87s0,0,0,0l.007-.007L141.243,20.211a9.884,9.884,0,0,1,13.982,0l120.507,120.5.056.054a9.911,9.911,0,0,1-.018,13.971Zm0,0" transform="translate(-0.5 0.001)" fill="#f4f8fb"/>
</svg>
