<svg xmlns="http://www.w3.org/2000/svg" width="294.691" height="294.721" viewBox="0 0 294.691 294.721">
  <path id="Path_46" data-name="Path 46" d="M286.775,128.189l-.02-.02L166.532,7.95a27.126,27.126,0,0,0-38.371,0L8,128.106l-.121.124a27.12,27.12,0,0,0,18.056,46.226q.415.04.836.04h4.792v88.473a31.79,31.79,0,0,0,31.756,31.752h47.035a8.635,8.635,0,0,0,8.634-8.634V216.723a14.5,14.5,0,0,1,14.487-14.487h27.743a14.5,14.5,0,0,1,14.487,14.487v69.363a8.634,8.634,0,0,0,8.634,8.634h47.035a31.79,31.79,0,0,0,31.756-31.752V174.5h4.443a27.134,27.134,0,0,0,19.2-46.307Zm0,0" transform="translate(0 0.001)" fill="#005fb9"/>
</svg>
